<svg width="92" height="92" viewBox="0 0 92 92" fill="none" xmlns="http://www.w3.org/2000/svg">
<g opacity="0.51">
<path d="M15.5412 32.5234H4.97559V37.9141H15.5412V32.5234Z" fill="white" fill-opacity="0.48"/>
<path d="M15.5412 54.0859H4.97559V59.4766H15.5412V54.0859Z" fill="white" fill-opacity="0.48"/>
<path d="M15.5412 43.3047H0V48.6953H15.5412V43.3047Z" fill="white" fill-opacity="0.48"/>
<path d="M56.4657 10.4659C36.8722 10.4659 20.9316 26.4065 20.9316 46C20.9316 65.5935 36.8721 81.5341 56.4657 81.5341C76.0594 81.5341 92 65.5935 92 46C92 26.4065 76.0594 10.4659 56.4657 10.4659ZM56.4657 76.1435C39.8446 76.1435 26.3223 62.6211 26.3223 46C26.3223 29.3789 39.8446 15.8565 56.4657 15.8565C73.087 15.8565 86.6094 29.3789 86.6094 46C86.6094 62.6211 73.087 76.1435 56.4657 76.1435Z" fill="white" fill-opacity="0.48"/>
<path d="M58.2065 47.3394V29.9282H52.8159V50.189L66.7072 59.6555L69.743 55.2009L58.2065 47.3394Z" fill="white" fill-opacity="0.48"/>
</g>
</svg>
