<svg width="92" height="92" viewBox="0 0 92 92" fill="none" xmlns="http://www.w3.org/2000/svg">
<g opacity="0.51" clip-path="url(#clip0)">
<path d="M30.235 15.6517C29.4844 15.0085 28.4923 14.7259 27.513 14.8781C19.4633 16.1243 13.3931 23.197 13.3931 31.3299C13.3931 35.7487 15.1321 39.9214 18.2896 43.0791C21.4472 46.2368 25.6198 47.9756 30.0389 47.9756C38.1717 47.9756 45.2444 41.9054 46.4906 33.8557C46.6423 32.8764 46.3604 31.8843 45.717 31.1337C45.0777 30.3878 44.1473 29.9598 43.1647 29.9598H32.0353C31.6899 29.9598 31.4089 29.6789 31.4089 29.3334V18.2038C31.4089 17.2212 30.9809 16.2911 30.235 15.6517ZM32.0353 32.6999H43.1647C43.4133 32.6999 43.567 32.8358 43.6366 32.9169C43.7083 33.0006 43.8227 33.1794 43.7829 33.4365C42.7414 40.163 36.8329 45.2355 30.0389 45.2355C22.3711 45.2355 16.1332 38.9976 16.1332 31.3299C16.1332 24.536 21.2057 18.6273 27.9323 17.5859C27.9688 17.5802 28.0037 17.5776 28.0369 17.5776C28.2382 17.5776 28.38 17.6706 28.4518 17.7322C28.5327 17.8016 28.6688 17.9552 28.6688 18.204V29.3334C28.6688 31.1897 30.179 32.6999 32.0353 32.6999Z" fill="white" fill-opacity="0.48"/>
<path d="M30.3652 15.4998L30.3652 15.4999C31.1554 16.1772 31.6089 17.1628 31.6089 18.2038V29.3334C31.6089 29.5684 31.8003 29.7598 32.0353 29.7598H43.1647C44.2057 29.7598 45.1915 30.2133 45.8689 31.0035C46.5504 31.7986 46.8488 32.8495 46.6883 33.8863C45.427 42.0332 38.2706 48.1756 30.0389 48.1756C25.5661 48.1756 21.3428 46.4152 18.1482 43.2205C14.9536 40.0257 13.1931 35.8024 13.1931 31.3299C13.1931 23.0982 19.3354 15.9418 27.4823 14.6805L30.3652 15.4998ZM30.3652 15.4998C29.5702 14.8186 28.5194 14.5193 27.4824 14.6804L30.3652 15.4998ZM43.5852 33.4058L43.5852 33.4059C42.5589 40.0352 36.7339 45.0355 30.0389 45.0355C22.4816 45.0355 16.3332 38.8871 16.3332 31.3299C16.3332 24.635 21.3335 18.8099 27.9629 17.7835L27.9629 17.7835C27.9893 17.7794 28.014 17.7776 28.0369 17.7776C28.1738 17.7776 28.271 17.8406 28.3216 17.884C28.3783 17.9327 28.4688 18.0357 28.4688 18.204V29.3334C28.4688 31.3002 30.0685 32.8999 32.0353 32.8999H43.1647C43.3329 32.8999 43.4359 32.9902 43.4848 33.0472C43.535 33.1057 43.6128 33.2276 43.5852 33.4058Z" stroke="white" stroke-opacity="0.48" stroke-width="0.4"/>
<path d="M83.3666 75.194C84.1233 75.194 84.7367 74.5806 84.7367 73.824V10.7887C84.7367 6.98928 81.6464 3.89826 77.8481 3.89826H75.103C73.9869 1.59346 71.6238 0 68.8952 0H14.1534C10.354 0 7.26294 3.09102 7.26294 6.89046V32.631C7.26294 33.3877 7.87636 34.0011 8.63299 34.0011C9.38963 34.0011 10.003 33.3877 10.003 32.631V6.89046C10.003 4.60192 11.8649 2.74011 14.1534 2.74011H68.8952C71.1847 2.74011 73.0474 4.60192 73.0474 6.89046V68.0588H62.3811C60.2548 68.0588 58.5248 69.7887 58.5248 71.915V82.9869H14.1534C11.8649 82.9869 10.003 81.1258 10.003 78.8383V38.8419C10.003 38.0853 9.38963 37.4719 8.63299 37.4719C7.87636 37.4719 7.26294 38.0853 7.26294 38.8419V78.8383C7.26294 82.6367 10.354 85.727 14.1534 85.727H16.2412C16.5546 89.238 19.5114 92 23.1024 92H77.8479C81.6462 92 84.7365 88.909 84.7365 85.1095V80.2175C84.7365 79.4609 84.1231 78.8475 83.3665 78.8475C82.6098 78.8475 81.9964 79.4609 81.9964 80.2175V85.1095C81.9964 87.3981 80.1353 89.2599 77.8479 89.2599H23.1026C21.0239 89.2599 19.2977 87.7236 18.9984 85.727H59.8785C59.8841 85.727 59.89 85.7277 59.8956 85.7277C60.2526 85.7277 60.6091 85.5891 60.8777 85.3129L75.3995 70.3846C75.6454 70.1318 75.7875 69.7812 75.7875 69.4286V6.63837H77.8481C80.1355 6.63837 81.9966 8.50018 81.9966 10.7887V73.824C81.9966 74.5806 82.61 75.194 83.3666 75.194ZM62.3811 70.7989H71.1741L61.2649 80.9853V71.915C61.2649 71.2996 61.7657 70.7989 62.3811 70.7989Z" fill="white" fill-opacity="0.48"/>
<path d="M83.3666 75.394C84.2337 75.394 84.9367 74.691 84.9367 73.824V10.7887C84.9367 6.87887 81.7569 3.69826 77.8481 3.69826H75.2271C74.0572 1.38825 71.6588 -0.2 68.8952 -0.2H14.1534C10.2435 -0.2 7.06294 2.98057 7.06294 6.89046V32.631C7.06294 33.4981 7.7659 34.2011 8.63299 34.2011C9.50008 34.2011 10.203 33.4981 10.203 32.631V6.89046C10.203 4.71238 11.9753 2.94011 14.1534 2.94011H68.8952C71.0743 2.94011 72.8474 4.71246 72.8474 6.89046V67.8588H62.3811C60.1443 67.8588 58.3248 69.6782 58.3248 71.915V82.7869H14.1534C11.9752 82.7869 10.203 81.0153 10.203 78.8383V38.8419C10.203 37.9748 9.50008 37.2719 8.63299 37.2719C7.7659 37.2719 7.06294 37.9748 7.06294 38.8419V78.8383C7.06294 82.7472 10.2436 85.927 14.1534 85.927H16.0606C16.4674 89.4529 19.4691 92.2 23.1024 92.2H77.8479C81.7567 92.2 84.9365 89.0194 84.9365 85.1095V80.2175C84.9365 79.3504 84.2335 78.6475 83.3665 78.6475C82.4994 78.6475 81.7964 79.3504 81.7964 80.2175V85.1095C81.7964 87.2877 80.0248 89.0599 77.8479 89.0599H23.1026C21.205 89.0599 19.6153 87.7142 19.2377 85.927H59.875L59.8818 85.9274C59.8852 85.9275 59.89 85.9277 59.8956 85.9277C60.3043 85.9277 60.7133 85.7688 61.021 85.4523C61.0211 85.4523 61.0211 85.4523 61.0211 85.4523L75.5429 70.524L75.3995 70.3846L75.5429 70.524C75.8251 70.2338 75.9875 69.8332 75.9875 69.4286V6.83837H77.8481C80.025 6.83837 81.7966 8.61055 81.7966 10.7887V73.824C81.7966 74.691 82.4995 75.394 83.3666 75.394ZM62.3811 70.9989H70.7005L61.4649 80.4929V71.915C61.4649 71.41 61.8761 70.9989 62.3811 70.9989Z" stroke="white" stroke-opacity="0.48" stroke-width="0.4"/>
<path d="M61.6836 63.842C61.6836 63.0854 61.0702 62.472 60.3136 62.472H18.0007C17.244 62.472 16.6306 63.0854 16.6306 63.842C16.6306 64.5986 17.244 65.2121 18.0007 65.2121H60.3136C61.0702 65.2121 61.6836 64.5986 61.6836 63.842Z" fill="white" fill-opacity="0.48"/>
<path d="M61.8836 63.842C61.8836 62.9749 61.1807 62.272 60.3136 62.272H18.0007C17.1336 62.272 16.4306 62.9749 16.4306 63.842C16.4306 64.7091 17.1336 65.4121 18.0007 65.4121H60.3136C61.1807 65.4121 61.8836 64.7091 61.8836 63.842Z" stroke="white" stroke-opacity="0.48" stroke-width="0.4"/>
<path d="M17.5827 69.3644C16.8261 69.3644 16.2126 69.9779 16.2126 70.7345C16.2126 71.4911 16.8261 72.1045 17.5827 72.1045H47.6325C48.3891 72.1045 49.0026 71.4911 49.0026 70.7345C49.0026 69.9779 48.3891 69.3644 47.6325 69.3644H17.5827Z" fill="white" fill-opacity="0.48"/>
<path d="M17.5827 69.1644C16.7156 69.1644 16.0126 69.8674 16.0126 70.7345C16.0126 71.6016 16.7156 72.3045 17.5827 72.3045H47.6325C48.4996 72.3045 49.2026 71.6016 49.2026 70.7345C49.2026 69.8674 48.4996 69.1644 47.6325 69.1644H17.5827Z" stroke="white" stroke-opacity="0.48" stroke-width="0.4"/>
<path d="M16.6306 56.9493C16.6306 57.7059 17.244 58.3193 18.0007 58.3193H60.3136C61.0702 58.3193 61.6836 57.7059 61.6836 56.9493C61.6836 56.1926 61.0702 55.5792 60.3136 55.5792H18.0007C17.244 55.5792 16.6306 56.1926 16.6306 56.9493Z" fill="white" fill-opacity="0.48"/>
<path d="M16.4306 56.9493C16.4306 57.8164 17.1336 58.5193 18.0007 58.5193H60.3136C61.1807 58.5193 61.8836 57.8164 61.8836 56.9493C61.8836 56.0822 61.1807 55.3792 60.3136 55.3792H18.0007C17.1336 55.3792 16.4306 56.0822 16.4306 56.9493Z" stroke="white" stroke-opacity="0.48" stroke-width="0.4"/>
<path d="M38.0422 9.46875C37.066 9.32133 36.0782 9.60576 35.3316 10.2484C34.5885 10.8878 34.1624 11.8168 34.1624 12.7973V24.1351C34.1624 25.9914 35.6725 27.5016 37.5288 27.5016H51.0133C51.7699 27.5016 52.3833 26.8882 52.3833 26.1315C52.3833 21.6957 50.5844 17.3528 47.4479 14.2161C44.9197 11.6879 41.5793 10.002 38.0422 9.46875ZM37.5288 24.7617C37.1829 24.7617 36.9025 24.4812 36.9025 24.1353V12.7973C36.9545 12.3329 37.1982 12.1617 37.6337 12.1782C40.5958 12.6246 43.393 14.0365 45.5102 16.1537C47.7319 18.3754 49.1522 21.3197 49.5371 24.4228C49.5594 24.6031 49.4158 24.7615 49.2342 24.7615H37.5288V24.7617Z" fill="white" fill-opacity="0.48"/>
<path d="M47.5893 14.0747L47.4479 14.2161L47.5893 14.0747C45.0308 11.5162 41.6513 9.81058 38.072 9.27099C37.0383 9.11489 35.992 9.41611 35.2012 10.0968C34.4139 10.7742 33.9624 11.7586 33.9624 12.7973V24.1351C33.9624 26.1019 35.5621 27.7016 37.5288 27.7016H51.0133C51.8804 27.7016 52.5833 26.9986 52.5833 26.1315C52.5833 21.6426 50.7633 17.2489 47.5893 14.0747ZM37.5288 24.5615H37.5163C37.2866 24.5548 37.1025 24.3666 37.1025 24.1353V12.8088C37.1261 12.6133 37.1852 12.5155 37.2502 12.4628C37.3175 12.4083 37.4277 12.3721 37.6153 12.3777C40.5309 12.8196 43.2846 14.2109 45.3688 16.2951C47.5585 18.4848 48.9591 21.3879 49.3386 24.4473C49.3458 24.5052 49.2988 24.5615 49.2342 24.5615H37.5288Z" stroke="white" stroke-opacity="0.48" stroke-width="0.4"/>
<path d="M56.2195 40.76C56.2195 40.7642 56.22 40.7682 56.22 40.7724V44.7719C56.22 46.5433 57.4533 48.0284 59.1052 48.4237V50.9927C59.1052 51.7493 59.7186 52.3627 60.4752 52.3627C61.2319 52.3627 61.8453 51.7493 61.8453 50.9927V48.4243C63.4981 48.0297 64.7323 46.5438 64.7323 44.7719V17.0646C65.5687 17.012 66.3831 17.3167 66.9748 17.9084C67.5248 18.4599 67.8279 19.1911 67.8279 19.9675V27.6075C67.8279 28.3641 68.4413 28.9775 69.1979 28.9775C69.9545 28.9775 70.568 28.3641 70.568 27.6075V19.9675C70.568 18.4604 69.9808 17.042 68.9135 15.9721C67.8467 14.9051 66.4284 14.3176 64.9199 14.3176C64.8574 14.3176 64.7947 14.3196 64.7323 14.3218V12.1951C64.7323 10.1227 63.0462 8.43658 60.9738 8.43658H59.9785C57.9061 8.43658 56.22 10.1227 56.22 12.1951V26.3163C56.22 26.3205 56.2195 26.3246 56.2195 26.3288C56.2195 26.333 56.22 26.337 56.22 26.3412V40.7478C56.22 40.7518 56.2195 40.7558 56.2195 40.76ZM61.9923 39.3899H58.9603V27.6988H61.9923V39.3899ZM60.9738 45.7903H59.9785C59.417 45.7903 58.9601 45.3334 58.9601 44.7719V42.1301H61.9922V44.7717C61.9923 45.3334 61.5355 45.7903 60.9738 45.7903ZM59.9787 11.1767H60.9739C61.5355 11.1767 61.9923 11.6336 61.9923 12.1951V24.9587H58.9603V12.1951C58.9601 11.6336 59.417 11.1767 59.9787 11.1767Z" fill="white" fill-opacity="0.48"/>
<path d="M69.0551 15.8308L69.0549 15.8307C67.9535 14.7291 66.4892 14.1208 64.9323 14.1176V12.1951C64.9323 10.0122 63.1566 8.23658 60.9738 8.23658H59.9785C57.7957 8.23658 56.02 10.0122 56.02 12.1951V26.3121L56.0198 26.3157C56.0197 26.3189 56.0195 26.3234 56.0195 26.3288C56.0195 26.3341 56.0197 26.3386 56.0198 26.3418L56.02 26.3454V40.7434L56.0198 40.747C56.0197 40.7502 56.0195 40.7547 56.0195 40.76C56.0195 40.7653 56.0197 40.7698 56.0198 40.773L56.02 40.7767V44.7719C56.02 46.5831 57.2435 48.1091 58.9052 48.5782V50.9927C58.9052 51.8597 59.6081 52.5627 60.4752 52.5627C61.3423 52.5627 62.0453 51.8597 62.0453 50.9927V48.5788C63.708 48.1103 64.9323 46.5837 64.9323 44.7719V17.2588C65.6449 17.2626 66.3267 17.5433 66.8332 18.0496C67.346 18.5638 67.6279 19.2443 67.6279 19.9675V27.6075C67.6279 28.4746 68.3308 29.1775 69.1979 29.1775C70.065 29.1775 70.768 28.4746 70.768 27.6075V19.9675C70.768 18.4074 70.1597 16.9381 69.0551 15.8308ZM56.0202 26.3093L56.0202 26.3096L56.0202 26.3093ZM56.0202 26.3482C56.0203 26.3495 56.0202 26.3489 56.0202 26.348L56.0202 26.3482ZM56.0202 40.7404L56.0202 40.7406L56.0202 40.7404ZM56.0202 40.7795C56.0203 40.7808 56.0202 40.7801 56.0202 40.7792L56.0202 40.7795ZM59.1601 44.7719V42.3301H61.7922V44.7717V44.7718C61.7923 45.223 61.425 45.5903 60.9738 45.5903H59.9785C59.5275 45.5903 59.1601 45.223 59.1601 44.7719ZM61.7923 12.1951V24.7587H59.1603V12.1951V12.195C59.1602 11.744 59.5274 11.3767 59.9787 11.3767H60.9739C61.425 11.3767 61.7923 11.744 61.7923 12.1951ZM61.7923 39.1899H59.1603V27.8988H61.7923V39.1899Z" stroke="white" stroke-opacity="0.48" stroke-width="0.4"/>
</g>
<defs>
<clipPath id="clip0">
<rect width="92" height="92" fill="white"/>
</clipPath>
</defs>
</svg>
