<svg width="92" height="92" viewBox="0 0 92 92" fill="none" xmlns="http://www.w3.org/2000/svg">
<g opacity="0.51">
<path d="M61.8028 1.79688H11.9907C10.7143 1.8013 9.49181 2.31183 8.59135 3.21647C7.69089 4.12111 7.18602 5.34598 7.1875 6.62238V85.3388C7.18602 86.6152 7.69089 87.8401 8.59135 88.7447C9.49181 89.6493 10.7143 90.1599 11.9907 90.1643H61.8028C62.0887 90.1643 62.3629 90.0507 62.5651 89.8485C62.7673 89.6463 62.8809 89.3721 62.8809 89.0862C62.8809 88.8002 62.7673 88.526 62.5651 88.3238C62.3629 88.1216 62.0887 88.0081 61.8028 88.0081H11.9907C11.286 88.0043 10.6115 87.7212 10.1153 87.2207C9.61908 86.7203 9.3416 86.0435 9.34375 85.3388V6.62238C9.3416 5.91765 9.61908 5.24084 10.1153 4.74043C10.6115 4.24002 11.286 3.95688 11.9907 3.95312H61.8028C62.5075 3.95688 63.1819 4.24002 63.6782 4.74043C64.1744 5.24084 64.4519 5.91765 64.4497 6.62238V49.406C64.4497 49.6919 64.5633 49.9661 64.7655 50.1683C64.9677 50.3705 65.2419 50.4841 65.5279 50.4841C65.8138 50.4841 66.088 50.3705 66.2902 50.1683C66.4924 49.9661 66.606 49.6919 66.606 49.406V6.62238C66.6075 5.34597 66.1027 4.12107 65.2022 3.21642C64.3017 2.31177 63.0792 1.80125 61.8028 1.79688Z" fill="white" fill-opacity="0.48"/>
<path d="M61.8028 1.54688H61.8036C63.1462 1.55148 64.4322 2.08848 65.3794 3.04005C66.3266 3.99162 66.8576 5.28006 66.856 6.62268M61.8028 1.54688L66.606 6.62238M61.8028 1.54688L11.9907 1.54687L11.9899 1.54688C10.6473 1.55153 9.36133 2.08854 8.41416 3.0401C7.46703 3.99163 6.93598 5.27998 6.9375 6.62253M61.8028 1.54688L6.9375 6.62253M66.856 6.62268L66.606 6.62238M66.856 6.62268V6.62238H66.606M66.856 6.62268V49.406C66.856 49.7582 66.7161 50.096 66.467 50.3451C66.2179 50.5942 65.8801 50.7341 65.5279 50.7341C65.1756 50.7341 64.8378 50.5942 64.5887 50.3451C64.3397 50.096 64.1997 49.7582 64.1997 49.406V6.62238V6.62162C64.2017 5.98309 63.9503 5.36986 63.5007 4.91646C63.0512 4.46322 62.4404 4.2067 61.8021 4.20312M66.606 6.62238V49.406C66.606 49.6919 66.4924 49.9661 66.2902 50.1683C66.088 50.3705 65.8138 50.4841 65.5279 50.4841C65.2419 50.4841 64.9677 50.3705 64.7655 50.1683C64.5633 49.9661 64.4497 49.6919 64.4497 49.406V6.62238C64.4519 5.91765 64.1744 5.24084 63.6782 4.74043C63.1819 4.24002 62.5075 3.95688 61.8028 3.95312M61.8021 4.20312H61.8028V3.95312M61.8021 4.20312H11.9914M61.8021 4.20312C61.8019 4.20312 61.8017 4.20312 61.8014 4.20312L61.8028 3.95312M61.8028 3.95312H11.9907M9.34375 85.3388C9.3416 86.0435 9.61908 86.7203 10.1153 87.2207C10.6115 87.7212 11.286 88.0043 11.9907 88.0081M9.34375 85.3388L61.8028 1.79688H11.9907C10.7143 1.8013 9.49181 2.31183 8.59135 3.21647C7.69089 4.12111 7.18602 5.34598 7.1875 6.62238M9.34375 85.3388V6.62238C9.3416 5.91765 9.61908 5.24084 10.1153 4.74043C10.6115 4.24002 11.286 3.95688 11.9907 3.95312M9.34375 85.3388L11.9914 4.20312M11.9907 88.0081H61.8028C62.0887 88.0081 62.3629 88.1216 62.5651 88.3238C62.7673 88.526 62.8809 88.8002 62.8809 89.0862C62.8809 89.3721 62.7673 89.6463 62.5651 89.8485C62.3629 90.0507 62.0887 90.1643 61.8028 90.1643H11.9907C10.7143 90.1599 9.49181 89.6493 8.59135 88.7447C7.69089 87.8401 7.18602 86.6152 7.1875 85.3388M11.9907 88.0081V87.7581H11.9921L11.9907 88.0081ZM7.1875 85.3388V6.62238M7.1875 85.3388H6.9375V85.3387V6.62253M7.1875 85.3388L6.9375 6.62253M7.1875 6.62238H6.9375V6.62253M7.1875 6.62238L6.9375 6.62267C6.9375 6.62262 6.9375 6.62258 6.9375 6.62253M11.9914 4.20312H11.9907V3.95312M11.9914 4.20312C11.9916 4.20312 11.9918 4.20312 11.9921 4.20312L11.9907 3.95312" stroke="white" stroke-opacity="0.48" stroke-width="0.5"/>
<path d="M60.0238 29.3703C60.4049 29.3699 60.7703 29.2183 61.0398 28.9488C61.3093 28.6793 61.4609 28.3139 61.4613 27.9328V10.131C61.4609 9.74986 61.3093 9.38448 61.0398 9.11499C60.7703 8.8455 60.4049 8.69391 60.0238 8.69348H13.5449C13.1638 8.69391 12.7984 8.8455 12.5289 9.11499C12.2594 9.38448 12.1078 9.74986 12.1074 10.131V27.9328C12.1078 28.3139 12.2594 28.6793 12.5289 28.9488C12.7984 29.2183 13.1638 29.3699 13.5449 29.3703H60.0238ZM14.2637 10.8497H59.305V27.2141H14.2637V10.8497Z" fill="white" fill-opacity="0.48"/>
<path d="M60.0238 29.6203H60.0241C60.4714 29.6198 60.9003 29.4419 61.2166 29.1256C61.5329 28.8093 61.7108 28.3804 61.7113 27.9331V27.9328V10.131V10.1307C61.7108 9.68338 61.5329 9.25452 61.2166 8.93821C60.9003 8.6219 60.4714 8.44398 60.0241 8.44348H60.0238L13.5449 8.44348L13.5446 8.44348C13.0973 8.44398 12.6685 8.62191 12.3522 8.93821C12.0358 9.25452 11.8579 9.68338 11.8574 10.1307V10.131L11.8574 27.9328L11.8574 27.9331C11.8579 28.3804 12.0358 28.8093 12.3522 29.1256C12.6685 29.4419 13.0973 29.6198 13.5446 29.6203H13.5449H60.0238ZM14.5137 11.0997H59.055V26.9641H14.5137V11.0997Z" stroke="white" stroke-opacity="0.48" stroke-width="0.5"/>
<path d="M60.5697 50.561C60.8557 50.561 61.1299 50.4474 61.3321 50.2452C61.5343 50.043 61.6479 49.7688 61.6479 49.4828V34.9269C61.6477 34.542 61.4949 34.1729 61.2229 33.9006C60.951 33.6283 60.5821 33.4749 60.1973 33.4741H12.8519C12.467 33.4748 12.0981 33.6282 11.8261 33.9005C11.5542 34.1729 11.4013 34.542 11.4011 34.9269V83.4785C11.4013 83.8634 11.5541 84.2325 11.8261 84.5049C12.0981 84.7773 12.467 84.9307 12.8519 84.9314H43.179C43.4154 85.0181 43.6748 85.0181 43.9111 84.9314H49.5713C49.8572 84.9314 50.1314 84.8178 50.3336 84.6156C50.5358 84.4135 50.6494 84.1392 50.6494 83.8533C50.6494 83.5673 50.5358 83.2931 50.3336 83.0909C50.1314 82.8888 49.8572 82.7752 49.5713 82.7752H44.6236V77.035C44.6236 76.7491 44.51 76.4749 44.3078 76.2727C44.1056 76.0705 43.8314 75.9569 43.5454 75.9569C43.2595 75.9569 42.9853 76.0705 42.7831 76.2727C42.5809 76.4749 42.4673 76.7491 42.4673 77.035V82.7755H28.8001V72.8724H43.179C43.465 72.8724 43.7392 72.7588 43.9414 72.5566C44.1436 72.3544 44.2572 72.0802 44.2572 71.7943C44.2572 71.5083 44.1436 71.2341 43.9414 71.0319C43.7392 70.8297 43.465 70.7162 43.179 70.7162H28.8001V60.2328H43.1695V62.3531C43.1695 62.6391 43.2831 62.9133 43.4853 63.1155C43.6875 63.3177 43.9617 63.4313 44.2476 63.4313C44.5336 63.4313 44.8078 63.3177 45.01 63.1155C45.2122 62.9133 45.3258 62.6391 45.3258 62.3531V60.2328H45.7921C46.078 60.2328 46.3522 60.1192 46.5544 59.917C46.7566 59.7149 46.8702 59.4406 46.8702 59.1547C46.8702 58.8688 46.7566 58.5945 46.5544 58.3924C46.3522 58.1902 46.078 58.0766 45.7921 58.0766H45.3258V47.9681H59.4916V49.4828C59.4916 49.7688 59.6052 50.043 59.8074 50.2452C60.0096 50.4474 60.2838 50.561 60.5697 50.561ZM43.1695 35.6304V45.8118H28.8001V35.6304H43.1695ZM26.6438 35.6304V45.8118H13.5574V35.6304H26.6438ZM13.5574 47.9681H26.6438V58.0766H13.5574V47.9681ZM26.6438 82.7755H13.5574V72.8724H26.6438V82.7755ZM26.6438 70.7162H13.5574V60.2328H26.6438V70.7162ZM43.1695 58.0766H28.8001V47.9681H43.1695V58.0766ZM45.3258 45.8118V35.6304H59.4916V45.8118H45.3258Z" fill="white" fill-opacity="0.48"/>
<path d="M61.8979 34.9269V34.9268C61.8977 34.4757 61.7185 34.0431 61.3998 33.724C61.0811 33.4048 60.6488 33.225 60.1978 33.2241H60.1973L12.8519 33.2241L12.8515 33.2241C12.4004 33.225 11.968 33.4047 11.6492 33.7239C11.3305 34.0431 11.1513 34.4757 11.1511 34.9268V34.9269L11.1511 83.4785L11.1511 83.4785C11.1513 83.9297 11.3304 84.3623 11.6492 84.6816C11.9679 85.0008 12.4003 85.1806 12.8515 85.1814H12.8519H43.137C43.4021 85.2681 43.688 85.2681 43.9531 85.1814H49.5713C49.9235 85.1814 50.2613 85.0415 50.5104 84.7924C50.7595 84.5433 50.8994 84.2055 50.8994 83.8533C50.8994 83.501 50.7594 83.1632 50.5104 82.9142C50.2613 82.6651 49.9235 82.5252 49.5713 82.5252H44.8736V77.035C44.8736 76.6828 44.7336 76.345 44.4846 76.0959C44.2355 75.8469 43.8977 75.7069 43.5454 75.7069C43.1932 75.7069 42.8554 75.8468 42.6063 76.0959C42.3572 76.345 42.2173 76.6828 42.2173 77.035V82.5255H29.0501V73.1224H43.179C43.5313 73.1224 43.8691 72.9825 44.1182 72.7334C44.3672 72.4843 44.5072 72.1465 44.5072 71.7943C44.5072 71.442 44.3672 71.1042 44.1182 70.8552C43.8691 70.6061 43.5313 70.4662 43.179 70.4662H29.0501V60.4828H42.9195V62.3531C42.9195 62.7054 43.0595 63.0432 43.3085 63.2923C43.5576 63.5413 43.8954 63.6813 44.2476 63.6813C44.5999 63.6813 44.9377 63.5413 45.1868 63.2923C45.4358 63.0432 45.5758 62.7054 45.5758 62.3531V60.4828H45.7921C46.1443 60.4828 46.4821 60.3429 46.7312 60.0938C46.9803 59.8448 47.1202 59.5069 47.1202 59.1547C47.1202 58.8025 46.9803 58.4646 46.7312 58.2156C46.4821 57.9665 46.1443 57.8266 45.7921 57.8266H45.5758V48.2181H59.2416V49.4828C59.2416 49.8351 59.3815 50.1729 59.6306 50.422C59.8797 50.671 60.2175 50.811 60.5697 50.811C60.922 50.811 61.2598 50.671 61.5089 50.422C61.7579 50.1729 61.8979 49.8351 61.8979 49.4828V34.9269ZM42.9195 35.8804V45.5618H29.0501V35.8804H42.9195ZM26.3938 35.8804V45.5618H13.8074V35.8804H26.3938ZM13.8074 48.2181H26.3938V57.8266H13.8074V48.2181ZM26.3938 82.5255H13.8074V73.1224H26.3938V82.5255ZM26.3938 70.4662H13.8074V60.4828H26.3938V70.4662ZM42.9195 57.8266H29.0501V48.2181H42.9195V57.8266ZM45.5758 45.5618V35.8804H59.2416V45.5618H45.5758Z" stroke="white" stroke-opacity="0.48" stroke-width="0.5"/>
<path d="M63.3714 48.2163C51.548 48.2163 41.9304 57.6339 41.9304 69.2097C41.9304 80.7855 51.5489 90.2032 63.3714 90.2032C75.194 90.2032 84.8125 80.7855 84.8125 69.2097C84.8125 57.6339 75.194 48.2163 63.3714 48.2163ZM63.3714 88.0469C52.7377 88.0469 44.0867 79.5966 44.0867 69.2097C44.0867 58.8229 52.7383 50.3726 63.3714 50.3726C74.0046 50.3726 82.6562 58.8229 82.6562 69.2097C82.6562 79.5966 74.0052 88.0469 63.3714 88.0469Z" fill="white" fill-opacity="0.48"/>
<path d="M63.3714 47.9663C51.4149 47.9663 41.6804 57.4909 41.6804 69.2097C41.6804 80.9286 51.4158 90.4532 63.3714 90.4532C75.3271 90.4532 85.0625 80.9286 85.0625 69.2097C85.0625 57.4909 75.3271 47.9663 63.3714 47.9663ZM63.3714 87.7969C52.8702 87.7969 44.3367 79.453 44.3367 69.2097C44.3367 58.9665 52.8708 50.6226 63.3714 50.6226C73.8721 50.6226 82.4062 58.9665 82.4062 69.2097C82.4062 79.453 73.8727 87.7969 63.3714 87.7969Z" stroke="white" stroke-opacity="0.48" stroke-width="0.5"/>
<path d="M64.761 58.4523V56.9178C64.761 56.6319 64.6474 56.3577 64.4452 56.1555C64.243 55.9533 63.9688 55.8397 63.6829 55.8397C63.3969 55.8397 63.1227 55.9533 62.9205 56.1555C62.7183 56.3577 62.6047 56.6319 62.6047 56.9178V58.4547C61.5138 58.5972 60.4973 59.0858 59.7046 59.8487C58.0915 61.4208 57.9965 63.6248 58.0058 64.2627C58.0418 66.7403 59.924 68.8307 62.5825 69.3464L62.8238 69.3937C63.0252 69.4331 63.2714 69.4814 63.4227 69.5101C63.5152 69.5281 63.7308 69.5923 63.8458 69.6266C63.8848 69.6383 63.9231 69.6522 63.9605 69.6683C63.9747 69.6744 63.9891 69.6803 64.0036 69.6862L64.3743 69.8275C64.4114 69.8415 64.4477 69.8575 64.483 69.8754C64.6614 69.9653 64.7051 69.9913 64.8348 70.0666C64.8887 70.0975 64.9518 70.1346 65.028 70.178L65.0713 70.2054C65.0832 70.2131 65.0968 70.2215 65.1121 70.2307C65.5024 70.4663 67.4534 71.7345 67.5312 73.5847C67.5778 74.6918 67.2926 75.5376 66.6596 76.1706C65.787 77.0432 64.3094 77.3876 63.2326 77.3427C60.9617 77.2473 59.6208 75.4053 59.508 74.4009C59.4931 74.2594 59.4504 74.1224 59.3823 73.9975C59.3143 73.8727 59.2222 73.7625 59.1113 73.6734C59.0005 73.5843 58.8732 73.518 58.7366 73.4783C58.6 73.4386 58.457 73.4264 58.3157 73.4422C58.1743 73.4581 58.0376 73.5017 57.9132 73.5706C57.7888 73.6396 57.6793 73.7324 57.5909 73.8439C57.5026 73.9553 57.4372 74.0831 57.3984 74.2199C57.3597 74.3568 57.3484 74.4999 57.3652 74.6411C57.6777 77.4277 60.447 79.122 62.6046 79.4438V80.7539C62.6046 81.0398 62.7181 81.3141 62.9203 81.5163C63.1225 81.7184 63.3967 81.832 63.6827 81.832C63.9686 81.832 64.2428 81.7184 64.445 81.5163C64.6472 81.3141 64.7608 81.0398 64.7608 80.7539V79.3804C65.9498 79.1674 67.2236 78.6561 68.1844 77.6953C69.2377 76.6419 69.7568 75.1892 69.6855 73.4942C69.5648 70.6229 67.0184 68.8636 66.222 68.3822C66.2096 68.3743 66.1322 68.3262 66.1175 68.3174C66.0316 68.2685 65.9692 68.2322 65.9175 68.2022C65.7644 68.1132 65.6808 68.0655 65.4576 67.9524C65.355 67.9004 65.2498 67.8538 65.1423 67.8128L64.7905 67.6788C64.6839 67.6339 64.575 67.5947 64.4643 67.5614C64.2338 67.4926 64.0115 67.4277 63.8255 67.3923C63.6773 67.3641 63.4356 67.3169 63.2381 67.2781L62.9932 67.2303C61.0618 66.8556 60.1793 65.4544 60.1615 64.232C60.149 63.3657 60.4176 62.1656 61.2093 61.3929C61.84 60.7784 62.7512 60.4904 63.9168 60.5376C67.1153 60.6668 67.8484 63.3576 67.8818 63.4875C67.9508 63.7637 68.1263 64.0014 68.3699 64.1487C68.6135 64.296 68.9055 64.341 69.1821 64.2738C69.4588 64.2067 69.6976 64.0328 69.8465 63.7902C69.9955 63.5476 70.0424 63.2559 69.9771 62.9789C69.6486 61.7954 68.9786 60.7349 68.0509 59.9299C67.1232 59.1248 65.979 58.6109 64.761 58.4523Z" fill="white" fill-opacity="0.48"/>
<path d="M64.8348 70.0666L64.8165 70.056C64.7005 69.9887 64.6528 69.9609 64.483 69.8754C64.4477 69.8575 64.4114 69.8415 64.3743 69.8275L64.8348 70.0666ZM64.8348 70.0666C64.8571 70.0794 64.881 70.0932 64.9067 70.1081C64.9432 70.1293 64.9833 70.1525 65.028 70.178L64.8348 70.0666ZM59.5312 59.6686L59.5312 59.6686C60.3096 58.9195 61.2936 58.4227 62.3547 58.2397V56.9178C62.3547 56.5656 62.4947 56.2278 62.7437 55.9787C62.9928 55.7296 63.3306 55.5897 63.6829 55.5897C64.0351 55.5897 64.3729 55.7296 64.622 55.9787C64.8711 56.2278 65.011 56.5656 65.011 56.9178V58.2365C66.1961 58.4318 67.3055 58.952 68.2148 59.741C69.1795 60.5783 69.8763 61.6811 70.218 62.912L70.2207 62.9215L70.2205 62.9215C70.3009 63.2629 70.2431 63.6222 70.0596 63.921C69.8761 64.2199 69.5819 64.4341 69.2411 64.5168C68.9003 64.5995 68.5406 64.5441 68.2405 64.3626C67.9407 64.1814 67.7247 63.8889 67.6395 63.5491C67.626 63.4968 67.4456 62.8345 66.8941 62.1723C66.3461 61.5143 65.4264 60.8488 63.9067 60.7874L63.9067 60.7874C62.7866 60.742 61.9509 61.0195 61.3839 61.5719C60.6594 62.2789 60.3995 63.4005 60.4115 64.2284C60.4275 65.3306 61.2238 66.6324 63.0408 66.9848L63.0411 66.9849L63.286 67.0327L63.2863 67.0328C63.4839 67.0716 63.7249 67.1187 63.8723 67.1468C64.073 67.185 64.3077 67.2538 64.5358 67.3219L64.5363 67.322C64.6541 67.3574 64.77 67.399 64.8835 67.4467L65.2313 67.5792L65.2314 67.5792C65.347 67.6233 65.4603 67.6735 65.5707 67.7294M59.5312 59.6686L65.9175 68.2022L66.043 67.986C66.043 67.986 66.043 67.986 66.043 67.986C65.8869 67.8953 65.799 67.8451 65.5707 67.7294M59.5312 59.6686L59.5301 59.6697C57.8398 61.317 57.7463 63.6125 57.7558 64.2663L59.5312 59.6686ZM65.5707 67.7294L65.4576 67.9524L65.5706 67.7294C65.5706 67.7294 65.5707 67.7294 65.5707 67.7294ZM66.3536 68.1697C66.3529 68.1692 66.3521 68.1687 66.3514 68.1683L66.222 68.3822L66.3564 68.1714C66.3557 68.171 66.3548 68.1704 66.3536 68.1697ZM57.7558 64.2664C57.7937 66.8774 59.7758 69.0567 62.5348 69.5919L62.7757 69.639L62.7758 69.6391C62.8125 69.6462 62.8508 69.6537 62.8897 69.6613C63.0635 69.6953 63.251 69.732 63.3754 69.7556C63.4526 69.7707 63.6518 69.8296 63.7738 69.866C63.8038 69.875 63.8332 69.8857 63.862 69.8981C63.8783 69.9051 63.8943 69.9116 63.9093 69.9178L63.9093 69.9178L63.9146 69.9198L64.2853 70.0611L64.2857 70.0612C64.3144 70.0721 64.3426 70.0846 64.3701 70.0985L64.3706 70.0987C64.5338 70.1809 64.5774 70.2063 64.6898 70.2715L64.7094 70.2829L64.7105 70.2835C64.7299 70.2946 64.7531 70.3081 64.7788 70.323C64.8154 70.3442 64.857 70.3683 64.8993 70.3924L64.9365 70.4159C64.9514 70.4255 64.9673 70.4353 64.9834 70.445C65.1694 70.5573 65.7331 70.9196 66.2572 71.474C66.7842 72.0314 67.2462 72.7562 67.2815 73.5952C67.3258 74.6502 67.055 75.4216 66.4828 75.9938C65.6767 76.8 64.2783 77.1361 63.243 77.0929C62.1763 77.0481 61.3287 76.5938 60.7327 76.0309C60.1295 75.4613 59.8049 74.8013 59.7565 74.3738C59.7381 74.1999 59.6855 74.0314 59.6018 73.8778C59.518 73.724 59.4045 73.5883 59.268 73.4786C59.1315 73.3688 58.9746 73.2871 58.8064 73.2382C58.6381 73.1894 58.4619 73.1743 58.2878 73.1938C58.1137 73.2133 57.9452 73.2671 57.792 73.352L57.9127 73.5697L57.792 73.352C57.6388 73.4369 57.5039 73.5513 57.395 73.6886C57.2862 73.8258 57.2056 73.9833 57.1579 74.1518C57.1103 74.3201 57.0963 74.4961 57.1169 74.6698C57.2824 76.1432 58.0969 77.3184 59.1355 78.1609C60.1072 78.9491 61.2868 79.4569 62.3546 79.6553V80.7539C62.3546 81.1061 62.4945 81.444 62.7436 81.693C62.9926 81.9421 63.3304 82.082 63.6827 82.082C64.0349 82.082 64.3727 81.9421 64.6218 81.693C64.8709 81.444 65.0108 81.1061 65.0108 80.7539V79.5868L57.7558 64.2664Z" stroke="white" stroke-opacity="0.48" stroke-width="0.5"/>
</g>
</svg>
