<svg width="20" height="19" viewBox="0 0 20 19" fill="none" xmlns="http://www.w3.org/2000/svg">
<g clip-path="url(#clip0)">
<path d="M11.1889 18.6404C11.1108 18.6531 11.0323 18.6649 10.9536 18.6756C11.0323 18.6649 11.1108 18.6531 11.1889 18.6404Z" fill="white" fill-opacity="0.2"/>
<path d="M11.3767 18.6084C11.3394 18.6153 11.302 18.6216 11.2646 18.628C11.302 18.6216 11.3394 18.6153 11.3767 18.6084Z" fill="white" fill-opacity="0.2"/>
<path d="M10.7441 18.7017C10.6526 18.712 10.5606 18.7211 10.4683 18.7289C10.5606 18.7211 10.6526 18.712 10.7441 18.7017Z" fill="white" fill-opacity="0.2"/>
<path d="M10.9243 18.6797C10.8803 18.6854 10.8361 18.6907 10.792 18.6957C10.8361 18.6907 10.8803 18.6854 10.9243 18.6797Z" fill="white" fill-opacity="0.2"/>
<path d="M11.6318 18.5576C11.5988 18.5646 11.5658 18.5716 11.5327 18.5784C11.5658 18.5716 11.5988 18.5646 11.6318 18.5576Z" fill="white" fill-opacity="0.2"/>
<path d="M12.2659 18.4001C12.2393 18.4077 12.2127 18.4149 12.186 18.4223C12.2127 18.4149 12.2393 18.4077 12.2659 18.4001Z" fill="white" fill-opacity="0.2"/>
<path d="M12.0738 18.4526C12.0449 18.4602 12.0159 18.468 11.9868 18.4753C12.0159 18.468 12.0449 18.4604 12.0738 18.4526Z" fill="white" fill-opacity="0.2"/>
<path d="M11.8234 18.5154C11.7928 18.5225 11.7619 18.5293 11.731 18.5361C11.7619 18.5293 11.7928 18.5225 11.8234 18.5154Z" fill="white" fill-opacity="0.2"/>
<path d="M10.4652 18.7292C10.4158 18.7333 10.3664 18.7369 10.3169 18.7401C10.3664 18.7369 10.4158 18.7333 10.4652 18.7292Z" fill="white" fill-opacity="0.2"/>
<path d="M19.0575 9.38127C19.0575 4.20093 14.8565 0 9.67619 0C4.49585 0 0.294922 4.20093 0.294922 9.38127C0.294922 14.5616 4.49585 18.7625 9.67619 18.7625C9.7313 18.7625 9.78613 18.7614 9.84109 18.7604V11.4575H7.82559V9.10857H9.84109V7.38008C9.84109 5.37545 11.0649 4.28438 12.853 4.28438C13.7093 4.28438 14.4454 4.34823 14.66 4.37671V6.47181H13.4269C12.4541 6.47181 12.2657 6.93417 12.2657 7.61255V9.10857H14.5919L14.2887 11.4575H12.2657V18.4001C16.1869 17.276 19.0575 13.6634 19.0575 9.38127Z" fill="white" fill-opacity="0.2"/>
<path d="M10.296 18.7417C10.1984 18.7478 10.1003 18.7527 10.002 18.7559C10.1003 18.7527 10.1984 18.7478 10.296 18.7417Z" fill="white" fill-opacity="0.2"/>
<path d="M9.99705 18.7566C9.94523 18.7583 9.89327 18.7595 9.84131 18.7604C9.89327 18.7595 9.94523 18.7583 9.99705 18.7566Z" fill="white" fill-opacity="0.2"/>
</g>
<defs>
<clipPath id="clip0">
<rect width="18.7625" height="18.7625" fill="white" transform="translate(0.294922)"/>
</clipPath>
</defs>
</svg>
