<svg width="20" height="19" viewBox="0 0 20 19" fill="none" xmlns="http://www.w3.org/2000/svg">
<g clip-path="url(#clip0)">
<path d="M11.1889 18.6404C11.1108 18.6532 11.0323 18.6649 10.9536 18.6757C11.0323 18.6649 11.1108 18.6532 11.1889 18.6404Z" fill="white"/>
<path d="M11.3767 18.6084C11.3394 18.6152 11.302 18.6215 11.2646 18.628C11.302 18.6215 11.3394 18.6152 11.3767 18.6084Z" fill="white"/>
<path d="M10.7441 18.7017C10.6526 18.712 10.5606 18.7212 10.4683 18.7289C10.5606 18.7212 10.6526 18.712 10.7441 18.7017Z" fill="white"/>
<path d="M10.9243 18.6797C10.8803 18.6854 10.8361 18.6907 10.792 18.6957C10.8361 18.6907 10.8803 18.6854 10.9243 18.6797Z" fill="white"/>
<path d="M11.6318 18.5577C11.5988 18.5647 11.5658 18.5717 11.5327 18.5785C11.5658 18.5717 11.5988 18.5647 11.6318 18.5577Z" fill="white"/>
<path d="M12.2659 18.4002C12.2393 18.4078 12.2127 18.415 12.186 18.4224C12.2127 18.415 12.2393 18.4078 12.2659 18.4002Z" fill="white"/>
<path d="M12.0738 18.4526C12.0449 18.4602 12.0159 18.4679 11.9868 18.4752C12.0159 18.4679 12.0449 18.4603 12.0738 18.4526Z" fill="white"/>
<path d="M11.8234 18.5153C11.7928 18.5225 11.7619 18.5292 11.731 18.5361C11.7619 18.5292 11.7928 18.5225 11.8234 18.5153Z" fill="white"/>
<path d="M10.4652 18.7292C10.4158 18.7332 10.3664 18.7368 10.3169 18.74C10.3664 18.7368 10.4158 18.7332 10.4652 18.7292Z" fill="white"/>
<path d="M19.0575 9.38127C19.0575 4.20093 14.8565 0 9.67619 0C4.49585 0 0.294922 4.20093 0.294922 9.38127C0.294922 14.5616 4.49585 18.7625 9.67619 18.7625C9.7313 18.7625 9.78613 18.7614 9.84109 18.7604V11.4575H7.82559V9.10857H9.84109V7.38008C9.84109 5.37545 11.0649 4.28438 12.853 4.28438C13.7093 4.28438 14.4454 4.34823 14.66 4.37671V6.47181H13.4269C12.4541 6.47181 12.2657 6.93417 12.2657 7.61255V9.10857H14.5919L14.2887 11.4575H12.2657V18.4001C16.1869 17.276 19.0575 13.6634 19.0575 9.38127Z" fill="white"/>
<path d="M10.296 18.7416C10.1984 18.7478 10.1003 18.7526 10.002 18.7558C10.1003 18.7526 10.1984 18.7478 10.296 18.7416Z" fill="white"/>
<path d="M9.99705 18.7565C9.94523 18.7582 9.89327 18.7595 9.84131 18.7603C9.89327 18.7595 9.94523 18.7582 9.99705 18.7565Z" fill="white"/>
</g>
<defs>
<clipPath id="clip0">
<rect width="18.7625" height="18.7625" fill="white" transform="translate(0.294922)"/>
</clipPath>
</defs>
</svg>
