<svg width="19" height="19" viewBox="0 0 19 19" fill="none" xmlns="http://www.w3.org/2000/svg">
<path d="M11.1767 9.38133C11.1767 10.373 10.3728 11.177 9.38108 11.177C8.38936 11.177 7.58545 10.373 7.58545 9.38133C7.58545 8.38961 8.38936 7.58569 9.38108 7.58569C10.3728 7.58569 11.1767 8.38961 11.1767 9.38133Z" fill="white" fill-opacity="0.2"/>
<path d="M13.5806 6.20431C13.4942 5.97041 13.3565 5.75869 13.1776 5.58491C13.0038 5.40598 12.7923 5.26827 12.5582 5.18196C12.3684 5.10823 12.0832 5.02049 11.558 4.99658C10.9899 4.97067 10.8195 4.96509 9.38121 4.96509C7.94273 4.96509 7.77238 4.97053 7.20438 4.99644C6.67917 5.02049 6.39388 5.10823 6.20421 5.18196C5.97016 5.26827 5.75845 5.40598 5.58481 5.58491C5.40588 5.75869 5.26817 5.97026 5.18171 6.20431C5.10799 6.39412 5.02024 6.67941 4.99634 7.20462C4.97043 7.77263 4.96484 7.94297 4.96484 9.38145C4.96484 10.8198 4.97043 10.9901 4.99634 11.5583C5.02024 12.0835 5.10799 12.3686 5.18171 12.5585C5.26817 12.7925 5.40574 13.0041 5.58467 13.1778C5.75845 13.3568 5.97002 13.4945 6.20407 13.5808C6.39388 13.6547 6.67917 13.7424 7.20438 13.7663C7.77238 13.7922 7.94258 13.7977 9.38107 13.7977C10.8197 13.7977 10.99 13.7922 11.5579 13.7663C12.0831 13.7424 12.3684 13.6547 12.5582 13.5808C13.028 13.3996 13.3993 13.0283 13.5806 12.5585C13.6543 12.3686 13.742 12.0835 13.7661 11.5583C13.792 10.9901 13.7974 10.8198 13.7974 9.38145C13.7974 7.94297 13.792 7.77263 13.7661 7.20462C13.7422 6.67941 13.6544 6.39412 13.5806 6.20431ZM9.38121 12.1475C7.8534 12.1475 6.6149 10.9091 6.6149 9.38131C6.6149 7.8535 7.8534 6.61514 9.38121 6.61514C10.9089 6.61514 12.1474 7.8535 12.1474 9.38131C12.1474 10.9091 10.9089 12.1475 9.38121 12.1475ZM12.2567 7.15223C11.8997 7.15223 11.6103 6.86278 11.6103 6.50578C11.6103 6.14877 11.8997 5.85933 12.2567 5.85933C12.6137 5.85933 12.9032 6.14877 12.9032 6.50578C12.903 6.86278 12.6137 7.15223 12.2567 7.15223Z" fill="white" fill-opacity="0.2"/>
<path d="M9.38127 0C4.20093 0 0 4.20093 0 9.38127C0 14.5616 4.20093 18.7625 9.38127 18.7625C14.5616 18.7625 18.7625 14.5616 18.7625 9.38127C18.7625 4.20093 14.5616 0 9.38127 0ZM14.7357 11.6022C14.7096 12.1756 14.6184 12.5671 14.4853 12.9098C14.2055 13.6334 13.6334 14.2055 12.9098 14.4853C12.5673 14.6184 12.1756 14.7095 11.6023 14.7357C11.0279 14.7619 10.8444 14.7682 9.38141 14.7682C7.91831 14.7682 7.73494 14.7619 7.16035 14.7357C6.58704 14.7095 6.19539 14.6184 5.85284 14.4853C5.49326 14.35 5.16774 14.138 4.89863 13.8639C4.62464 13.5949 4.41264 13.2693 4.27737 12.9098C4.14424 12.5673 4.05306 12.1756 4.02701 11.6023C4.00052 11.0277 3.99437 10.8442 3.99437 9.38127C3.99437 7.91831 4.00052 7.73479 4.02686 7.16035C4.05291 6.5869 4.14396 6.19539 4.27708 5.8527C4.41236 5.49326 4.6245 5.1676 4.89863 4.89863C5.1676 4.6245 5.49326 4.4125 5.8527 4.27723C6.19539 4.1441 6.5869 4.05306 7.16035 4.02686C7.73479 4.00067 7.91831 3.99437 9.38127 3.99437C10.8442 3.99437 11.0277 4.00067 11.6022 4.02701C12.1756 4.05306 12.5671 4.1441 12.9098 4.27708C13.2693 4.41236 13.5949 4.6245 13.8641 4.89863C14.138 5.16774 14.3502 5.49326 14.4853 5.8527C14.6186 6.19539 14.7096 6.5869 14.7358 7.16035C14.762 7.73479 14.7682 7.91831 14.7682 9.38127C14.7682 10.8442 14.762 11.0277 14.7357 11.6022Z" fill="white" fill-opacity="0.2"/>
</svg>
