    <svg width="92" height="92" viewBox="0 0 92 92" fill="none" xmlns="http://www.w3.org/2000/svg">
            <g opacity="0.51" clip-path="url(#clip0)">
            <path d="M76.9652 57.3716C80.8095 51.5331 83.0507 44.5499 83.0507 37.0514C83.0507 16.6211 66.4289 0 45.9986 0C25.5683 0 8.94717 16.6211 8.94717 37.0514C8.94717 44.5499 11.1884 51.5331 15.032 57.3716L0.539062 78.508L17.123 75.4161L20.2155 92L33.883 72.0666C37.6817 73.3848 41.7577 74.1028 45.9986 74.1028C50.2402 74.1028 54.3162 73.3848 58.1142 72.0666L71.7823 92L74.8742 75.4161L91.4581 78.508L76.9652 57.3716ZM23.146 78.1374L21.4593 69.0912L12.4139 70.7786L18.5176 61.8764C21.4411 65.1093 24.926 67.8243 28.816 69.8697L23.146 78.1374ZM14.3694 37.0514C14.3694 19.6112 28.5584 5.42221 45.9986 5.42221C63.4395 5.42221 77.6285 19.6112 77.6285 37.0514C77.6285 54.4923 63.4395 68.6813 45.9986 68.6813C28.5584 68.6813 14.3694 54.4923 14.3694 37.0514ZM70.5379 69.0912L68.8512 78.1374L63.1819 69.8697C67.0719 67.8243 70.5568 65.1093 73.4803 61.8764L79.584 70.7779L70.5379 69.0912Z" fill="white" fill-opacity="0.48"/>
            <path d="M39.3939 45.1885L30.5779 36.3733L26.7441 40.2071L39.3939 52.8568L65.2541 26.9973L61.4203 23.1635L39.3939 45.1885Z" fill="white" fill-opacity="0.48"/>
            </g>
            <defs>
            <clipPath id="clip0">
            <rect width="92" height="92" fill="white"/>
            </clipPath>
            </defs>
            </svg>