<svg width="20" height="19" viewBox="0 0 20 19" fill="none" xmlns="http://www.w3.org/2000/svg">
<g clip-path="url(#clip0)">
<path d="M11.7666 9.38127C11.7666 10.373 10.9626 11.1769 9.97093 11.1769C8.97921 11.1769 8.17529 10.373 8.17529 9.38127C8.17529 8.38954 8.97921 7.58563 9.97093 7.58563C10.9626 7.58563 11.7666 8.38954 11.7666 9.38127Z" fill="white"/>
<path d="M14.1704 6.20428C14.0841 5.97038 13.9464 5.75866 13.7674 5.58488C13.5937 5.40595 13.3821 5.26824 13.1481 5.18192C12.9582 5.1082 12.6731 5.02046 12.1479 4.99655C11.5797 4.97064 11.4094 4.96506 9.97105 4.96506C8.53257 4.96506 8.36223 4.9705 7.79422 4.99641C7.26901 5.02046 6.98372 5.1082 6.79405 5.18192C6.56001 5.26824 6.34829 5.40595 6.17466 5.58488C5.99572 5.75866 5.85802 5.97023 5.77155 6.20428C5.69783 6.39409 5.61009 6.67938 5.58618 7.20459C5.56027 7.7726 5.55469 7.94294 5.55469 9.38142C5.55469 10.8198 5.56027 10.9901 5.58618 11.5583C5.61009 12.0835 5.69783 12.3686 5.77155 12.5584C5.85802 12.7925 5.99558 13.004 6.17451 13.1778C6.34829 13.3568 6.55986 13.4945 6.79391 13.5808C6.98372 13.6546 7.26901 13.7424 7.79422 13.7663C8.36223 13.7922 8.53243 13.7976 9.97091 13.7976C11.4095 13.7976 11.5799 13.7922 12.1477 13.7663C12.6729 13.7424 12.9582 13.6546 13.1481 13.5808C13.6179 13.3996 13.9892 13.0282 14.1704 12.5584C14.2441 12.3686 14.3319 12.0835 14.3559 11.5583C14.3818 10.9901 14.3873 10.8198 14.3873 9.38142C14.3873 7.94294 14.3818 7.7726 14.3559 7.20459C14.332 6.67938 14.2443 6.39409 14.1704 6.20428ZM9.97105 12.1474C8.44325 12.1474 7.20474 10.9091 7.20474 9.38128C7.20474 7.85347 8.44325 6.61511 9.97105 6.61511C11.4987 6.61511 12.7372 7.85347 12.7372 9.38128C12.7372 10.9091 11.4987 12.1474 9.97105 12.1474ZM12.8466 7.1522C12.4896 7.1522 12.2001 6.86275 12.2001 6.50575C12.2001 6.14874 12.4896 5.8593 12.8466 5.8593C13.2036 5.8593 13.493 6.14874 13.493 6.50575C13.4929 6.86275 13.2036 7.1522 12.8466 7.1522Z" fill="white"/>
<path d="M9.97111 0C4.79077 0 0.589844 4.20093 0.589844 9.38127C0.589844 14.5616 4.79077 18.7625 9.97111 18.7625C15.1515 18.7625 19.3524 14.5616 19.3524 9.38127C19.3524 4.20093 15.1515 0 9.97111 0ZM15.3255 11.6022C15.2995 12.1756 15.2083 12.5671 15.0752 12.9098C14.7953 13.6334 14.2233 14.2055 13.4997 14.4853C13.1571 14.6184 12.7655 14.7095 12.1922 14.7357C11.6177 14.7619 11.4342 14.7682 9.97125 14.7682C8.50815 14.7682 8.32478 14.7619 7.75019 14.7357C7.17689 14.7095 6.78524 14.6184 6.44269 14.4853C6.0831 14.35 5.75759 14.138 5.48847 13.8639C5.21449 13.5949 5.00249 13.2693 4.86721 12.9098C4.73409 12.5673 4.6429 12.1756 4.61685 11.6023C4.59037 11.0277 4.58421 10.8442 4.58421 9.38127C4.58421 7.91831 4.59037 7.73479 4.61671 7.16035C4.64276 6.5869 4.7338 6.19539 4.86693 5.8527C5.0022 5.49326 5.21434 5.1676 5.48847 4.89863C5.75744 4.6245 6.0831 4.4125 6.44254 4.27723C6.78524 4.1441 7.17674 4.05306 7.75019 4.02686C8.32464 4.00067 8.50815 3.99437 9.97111 3.99437C11.4341 3.99437 11.6176 4.00067 12.192 4.02701C12.7655 4.05306 13.157 4.1441 13.4997 4.27708C13.8591 4.41236 14.1848 4.6245 14.4539 4.89863C14.7279 5.16774 14.94 5.49326 15.0752 5.8527C15.2084 6.19539 15.2995 6.5869 15.3257 7.16035C15.3519 7.73479 15.358 7.91831 15.358 9.38127C15.358 10.8442 15.3519 11.0277 15.3255 11.6022Z" fill="white"/>
</g>
<defs>
<clipPath id="clip0">
<rect width="18.7625" height="18.7625" fill="white" transform="translate(0.589844)"/>
</clipPath>
</defs>
</svg>
