<svg width="19" height="19" viewBox="0 0 19 19" fill="none" xmlns="http://www.w3.org/2000/svg">
<g clip-path="url(#clip0)">
<path d="M9.38127 0C4.20093 0 0 4.20093 0 9.38127C0 14.5616 4.20093 18.7625 9.38127 18.7625C14.5616 18.7625 18.7625 14.5616 18.7625 9.38127C18.7625 4.20093 14.5616 0 9.38127 0ZM6.65518 14.1818H4.37041V7.30807H6.65518V14.1818ZM5.51287 6.36946H5.49798C4.73129 6.36946 4.23543 5.84168 4.23543 5.18206C4.23543 4.50755 4.74646 3.99437 5.52804 3.99437C6.30962 3.99437 6.7906 4.50755 6.80548 5.18206C6.80548 5.84168 6.30962 6.36946 5.51287 6.36946ZM14.8936 14.1818H12.6091V10.5045C12.6091 9.58038 12.2783 8.95011 11.4516 8.95011C10.8205 8.95011 10.4446 9.37526 10.2794 9.78566C10.219 9.93253 10.2042 10.1378 10.2042 10.3432V14.1818H7.9196C7.9196 14.1818 7.94951 7.95295 7.9196 7.30807H10.2042V8.28133C10.5078 7.81295 11.0511 7.14675 12.2632 7.14675C13.7664 7.14675 14.8936 8.12916 14.8936 10.2404V14.1818Z" fill="white"/>
</g>
<defs>
<clipPath id="clip0">
<rect width="18.7625" height="18.7625" fill="white"/>
</clipPath>
</defs>
</svg>
